<?xml version="1.0" encoding="utf-8"?>
<!-- Generator: Adobe Illustrator 26.5.0, SVG Export Plug-In . SVG Version: 6.00 Build 0)  -->
<svg version="1.1" id="Layer_1" xmlns="http://www.w3.org/2000/svg" xmlns:xlink="http://www.w3.org/1999/xlink" x="0px" y="0px"
	 viewBox="0 0 512 512" style="enable-background:new 0 0 512 512;" xml:space="preserve">
<style type="text/css">
	.st0{fill:#32FC8D;}
	.st1{fill:#0BE370;}
	.st2{fill:#14C767;}
	.st3{fill:#00AB6C;}
</style>
<g id="XMLID_1_">
	<path id="XMLID_3_" class="st0" d="M355.51,50.81c-7.86-3.65-14.18,0-14.18,8.42v331.23l142.32,67.93
		c15.72,7.58,28.35,2.25,28.35-11.51V127.86c0-1.26-0.84-2.53-2.11-3.09L355.65,50.95L355.51,50.81L355.51,50.81z"/>
	<path id="XMLID_4_" class="st1" d="M170.67,308.91L333.05,56.98c4.63-7.16,14.74-9.96,22.46-6.32l154.81,73.82
		c0.98,0.56,1.4,1.68,0.84,2.53L341.33,390.45L170.67,308.91L170.67,308.91z"/>
	<path id="XMLID_5_" class="st2" d="M23.44,55.3c-13.05-6.18-17.4-1.54-9.82,10.25l156.91,243.37l170.81,81.54L170.95,126.03
		c-0.28-0.42-0.56-0.7-0.98-0.84L23.44,55.3L23.44,55.3z"/>
	<path id="XMLID_6_" class="st3" d="M170.67,446.59c0,13.89-10.67,20.21-23.58,13.89L14.18,397.05C6.32,393.4,0,383.44,0,375.16
		V64.14C0,53.05,8.56,48,18.95,53.05l150.88,72c0.56,0.28,0.84,0.84,0.84,1.4L170.67,446.59L170.67,446.59z"/>
</g>
</svg>
